<?xml version="1.0" encoding="utf-8"?>
<!-- Generator: Adobe Illustrator 24.0.1, SVG Export Plug-In . SVG Version: 6.00 Build 0)  -->
<svg version="1.1" id="Layer_1" xmlns="http://www.w3.org/2000/svg" xmlns:xlink="http://www.w3.org/1999/xlink" x="0px" y="0px"
	 viewBox="0 0 1920 1080" style="enable-background:new 0 0 1920 1080;" xml:space="preserve">
<style type="text/css">
	.st0{fill:#233D7C;}
</style>
<g>
	<path class="st0" d="M1322.51,571.32l-26.12-66.75l5.37-5.37l-7.47,0.01l0-0.01h-26.74l5.76,5.68l0.37,0.37l-30.43,65.73
		l-9.43,9.43l13.92-0.01l15.15,0.01l-12.33-9.18l9.87-20.16h33.87l7.73,20.09l-6.16,9.26l16.35-0.02l17.79,0.02L1322.51,571.32z
		 M1263.02,545.25l14.95-33.76h0.41l13.72,33.76H1263.02z"/>
	<polygon class="st0" points="1192.09,508.31 1200.28,499.19 1182.45,499.2 1163.03,499.19 1172.3,508.41 1172.3,571.14 
		1163.03,580.4 1180.87,580.38 1200.28,580.4 1192.09,571.18 	"/>
	<polygon class="st0" points="1008.71,499.19 997.24,499.2 984.77,499.19 993.33,508.35 993.33,564.27 938.47,499.19 912.96,499.19 
		923.66,511.02 923.66,571.1 915.13,580.4 926.59,580.39 939.07,580.4 930.52,571.09 930.52,518.22 983.32,580.4 1000.19,580.4 
		1000.19,508.31 	"/>
	<polygon class="st0" points="741.06,508.37 749.26,499.18 731.42,499.2 712,499.18 721.27,508.45 721.27,571.13 712,580.4 
		729.84,580.38 749.26,580.4 741.06,571.23 	"/>
	<polygon class="st0" points="878.72,498.93 867.26,498.94 854.78,498.93 863.34,508.12 863.34,564.01 808.48,498.93 782.97,498.93 
		793.67,510.76 793.67,570.89 785.14,580.14 796.6,580.12 809.08,580.14 800.53,570.89 800.53,517.95 853.33,580.14 870.2,580.14 
		870.2,508.08 	"/>
	<polygon class="st0" points="1042.52,499.19 1042.52,524.48 1060.62,504.99 1076.12,504.99 1076.08,571.11 1067.48,580.4 
		1085.15,580.38 1104.38,580.4 1095.83,571.25 1095.87,504.99 1111.23,504.99 1129.3,524.58 1129.31,499.19 	"/>
	<polygon class="st0" points="630.27,499.19 630.27,499.19 621.09,499.21 601.68,499.19 610.94,508.46 610.94,539.32 600.6,539.32 
		589.59,528.11 589.48,541.6 589.33,556.27 600.75,545.06 610.94,545.06 610.94,571.14 601.68,580.41 619.51,580.39 638.93,580.41 
		630.74,571.18 630.74,545.06 648.88,545.06 659.89,556.27 660,542.79 660.15,528.11 648.73,539.32 630.74,539.32 630.74,507.38 
		630.73,504.99 660.18,504.99 678.28,524.48 678.28,499.19 	"/>
</g>
</svg>
